<mxfile host="65bd71144e" pages="2" scale="1" border="10">
    <diagram id="dadOedTbFq0lM78iQjFx" name="concept-model">
        <mxGraphModel dx="588" dy="772" grid="1" gridSize="10" guides="1" tooltips="1" connect="1" arrows="1" fold="1" page="1" pageScale="1" pageWidth="827" pageHeight="1169" background="#ffffff" math="0" shadow="0">
            <root>
                <mxCell id="0"/>
                <mxCell id="1" parent="0"/>
                <mxCell id="cEJtKcfVc4VnsCkhs9IN-14" style="edgeStyle=orthogonalEdgeStyle;rounded=0;orthogonalLoop=1;jettySize=auto;html=1;exitX=0;exitY=0.5;exitDx=0;exitDy=0;entryX=0.75;entryY=0;entryDx=0;entryDy=0;startArrow=none;startFill=0;" parent="1" source="cEJtKcfVc4VnsCkhs9IN-1" target="cEJtKcfVc4VnsCkhs9IN-6" edge="1">
                    <mxGeometry relative="1" as="geometry"/>
                </mxCell>
                <mxCell id="cEJtKcfVc4VnsCkhs9IN-1" value="ГОРА" style="rounded=1;whiteSpace=wrap;html=1;" parent="1" vertex="1">
                    <mxGeometry x="320" width="120" height="60" as="geometry"/>
                </mxCell>
                <mxCell id="cEJtKcfVc4VnsCkhs9IN-21" style="edgeStyle=orthogonalEdgeStyle;rounded=0;orthogonalLoop=1;jettySize=auto;html=1;exitX=0.5;exitY=0;exitDx=0;exitDy=0;entryX=0.5;entryY=1;entryDx=0;entryDy=0;startArrow=none;startFill=0;" parent="1" source="cEJtKcfVc4VnsCkhs9IN-2" target="cEJtKcfVc4VnsCkhs9IN-9" edge="1">
                    <mxGeometry relative="1" as="geometry"/>
                </mxCell>
                <mxCell id="cEJtKcfVc4VnsCkhs9IN-22" style="edgeStyle=orthogonalEdgeStyle;rounded=0;orthogonalLoop=1;jettySize=auto;html=1;exitX=0;exitY=0.5;exitDx=0;exitDy=0;entryX=0.5;entryY=1;entryDx=0;entryDy=0;startArrow=none;startFill=0;" parent="1" source="cEJtKcfVc4VnsCkhs9IN-2" target="cEJtKcfVc4VnsCkhs9IN-7" edge="1">
                    <mxGeometry relative="1" as="geometry"/>
                </mxCell>
                <mxCell id="cEJtKcfVc4VnsCkhs9IN-2" value="ПОЛЬЗОВАТЕЛЬ" style="rounded=1;whiteSpace=wrap;html=1;" parent="1" vertex="1">
                    <mxGeometry x="160" y="400" width="120" height="60" as="geometry"/>
                </mxCell>
                <mxCell id="cEJtKcfVc4VnsCkhs9IN-16" style="edgeStyle=orthogonalEdgeStyle;rounded=0;orthogonalLoop=1;jettySize=auto;html=1;exitX=0;exitY=0.5;exitDx=0;exitDy=0;entryX=1;entryY=0.5;entryDx=0;entryDy=0;startArrow=classic;startFill=1;" parent="1" source="cEJtKcfVc4VnsCkhs9IN-4" target="cEJtKcfVc4VnsCkhs9IN-6" edge="1">
                    <mxGeometry relative="1" as="geometry"/>
                </mxCell>
                <mxCell id="cEJtKcfVc4VnsCkhs9IN-4" value="ТЭГ" style="rounded=1;whiteSpace=wrap;html=1;" parent="1" vertex="1">
                    <mxGeometry x="320" y="100" width="120" height="60" as="geometry"/>
                </mxCell>
                <mxCell id="cEJtKcfVc4VnsCkhs9IN-19" style="edgeStyle=orthogonalEdgeStyle;rounded=0;orthogonalLoop=1;jettySize=auto;html=1;exitX=1;exitY=0.5;exitDx=0;exitDy=0;entryX=0.25;entryY=0;entryDx=0;entryDy=0;startArrow=none;startFill=0;" parent="1" source="cEJtKcfVc4VnsCkhs9IN-5" target="cEJtKcfVc4VnsCkhs9IN-6" edge="1">
                    <mxGeometry relative="1" as="geometry"/>
                </mxCell>
                <mxCell id="cEJtKcfVc4VnsCkhs9IN-5" value="СЛОЖНОСТЬ" style="rounded=1;whiteSpace=wrap;html=1;" parent="1" vertex="1">
                    <mxGeometry width="120" height="60" as="geometry"/>
                </mxCell>
                <mxCell id="cEJtKcfVc4VnsCkhs9IN-18" style="edgeStyle=orthogonalEdgeStyle;rounded=0;orthogonalLoop=1;jettySize=auto;html=1;exitX=0;exitY=0.5;exitDx=0;exitDy=0;entryX=1;entryY=0.5;entryDx=0;entryDy=0;startArrow=none;startFill=0;" parent="1" source="cEJtKcfVc4VnsCkhs9IN-6" target="cEJtKcfVc4VnsCkhs9IN-7" edge="1">
                    <mxGeometry relative="1" as="geometry"/>
                </mxCell>
                <mxCell id="cEJtKcfVc4VnsCkhs9IN-6" value="ТУР" style="rounded=1;whiteSpace=wrap;html=1;" parent="1" vertex="1">
                    <mxGeometry x="160" y="100" width="120" height="60" as="geometry"/>
                </mxCell>
                <mxCell id="cEJtKcfVc4VnsCkhs9IN-7" value="ОТЗЫВ" style="rounded=1;whiteSpace=wrap;html=1;" parent="1" vertex="1">
                    <mxGeometry y="100" width="120" height="60" as="geometry"/>
                </mxCell>
                <mxCell id="cEJtKcfVc4VnsCkhs9IN-20" style="edgeStyle=orthogonalEdgeStyle;rounded=0;orthogonalLoop=1;jettySize=auto;html=1;exitX=0.5;exitY=0;exitDx=0;exitDy=0;entryX=0.5;entryY=1;entryDx=0;entryDy=0;startArrow=classic;startFill=1;endArrow=none;endFill=0;" parent="1" source="pKHp5c_XN5pBLhe2dibu-1" target="cEJtKcfVc4VnsCkhs9IN-6" edge="1">
                    <mxGeometry relative="1" as="geometry"/>
                </mxCell>
                <mxCell id="cEJtKcfVc4VnsCkhs9IN-9" value="БРОНИРОВАНИЕ" style="rounded=1;whiteSpace=wrap;html=1;" parent="1" vertex="1">
                    <mxGeometry x="160" y="300" width="120" height="60" as="geometry"/>
                </mxCell>
                <mxCell id="Bdv3iHwwd-AnzaTc91V5-2" style="edgeStyle=orthogonalEdgeStyle;rounded=0;html=1;exitX=0.5;exitY=1;exitDx=0;exitDy=0;entryX=0.5;entryY=0;entryDx=0;entryDy=0;strokeColor=#000000;elbow=vertical;" edge="1" parent="1" source="pKHp5c_XN5pBLhe2dibu-1" target="cEJtKcfVc4VnsCkhs9IN-9">
                    <mxGeometry relative="1" as="geometry"/>
                </mxCell>
                <mxCell id="pKHp5c_XN5pBLhe2dibu-1" value="ПРЕДЛОЖЕНИЕ" style="rounded=1;whiteSpace=wrap;html=1;" vertex="1" parent="1">
                    <mxGeometry x="160" y="200" width="120" height="60" as="geometry"/>
                </mxCell>
            </root>
        </mxGraphModel>
    </diagram>
    <diagram id="P1ExRV4J2XuqFDOCSL13" name="logic-model">
        <mxGraphModel dx="588" dy="772" grid="1" gridSize="10" guides="1" tooltips="1" connect="1" arrows="1" fold="1" page="1" pageScale="1" pageWidth="827" pageHeight="1169" background="#ffffff" math="0" shadow="0">
            <root>
                <mxCell id="0"/>
                <mxCell id="1" parent="0"/>
                <mxCell id="tbdWHVoQvG-Oq0Em6Cjs-1" value="user" style="swimlane;fontStyle=0;childLayout=stackLayout;horizontal=1;startSize=30;horizontalStack=0;resizeParent=1;resizeParentMax=0;resizeLast=0;collapsible=1;marginBottom=0;rounded=0;" parent="1" vertex="1">
                    <mxGeometry x="360" y="200" width="140" height="180" as="geometry"/>
                </mxCell>
                <mxCell id="tbdWHVoQvG-Oq0Em6Cjs-2" value="id" style="text;strokeColor=none;fillColor=none;align=left;verticalAlign=middle;spacingLeft=4;spacingRight=4;overflow=hidden;points=[[0,0.5],[1,0.5]];portConstraint=eastwest;rotatable=0;rounded=0;" parent="tbdWHVoQvG-Oq0Em6Cjs-1" vertex="1">
                    <mxGeometry y="30" width="140" height="30" as="geometry"/>
                </mxCell>
                <mxCell id="tbdWHVoQvG-Oq0Em6Cjs-3" value="login" style="text;strokeColor=none;fillColor=none;align=left;verticalAlign=middle;spacingLeft=4;spacingRight=4;overflow=hidden;points=[[0,0.5],[1,0.5]];portConstraint=eastwest;rotatable=0;rounded=0;" parent="tbdWHVoQvG-Oq0Em6Cjs-1" vertex="1">
                    <mxGeometry y="60" width="140" height="30" as="geometry"/>
                </mxCell>
                <mxCell id="tbdWHVoQvG-Oq0Em6Cjs-4" value="password" style="text;strokeColor=none;fillColor=none;align=left;verticalAlign=middle;spacingLeft=4;spacingRight=4;overflow=hidden;points=[[0,0.5],[1,0.5]];portConstraint=eastwest;rotatable=0;rounded=0;" parent="tbdWHVoQvG-Oq0Em6Cjs-1" vertex="1">
                    <mxGeometry y="90" width="140" height="30" as="geometry"/>
                </mxCell>
                <mxCell id="tbdWHVoQvG-Oq0Em6Cjs-5" value="full_name" style="text;strokeColor=none;fillColor=none;align=left;verticalAlign=middle;spacingLeft=4;spacingRight=4;overflow=hidden;points=[[0,0.5],[1,0.5]];portConstraint=eastwest;rotatable=0;rounded=0;" parent="tbdWHVoQvG-Oq0Em6Cjs-1" vertex="1">
                    <mxGeometry y="120" width="140" height="30" as="geometry"/>
                </mxCell>
                <mxCell id="2hii-CeqN-JNMRfknPXr-1" value="role" style="text;strokeColor=none;fillColor=none;align=left;verticalAlign=middle;spacingLeft=4;spacingRight=4;overflow=hidden;points=[[0,0.5],[1,0.5]];portConstraint=eastwest;rotatable=0;rounded=0;" vertex="1" parent="tbdWHVoQvG-Oq0Em6Cjs-1">
                    <mxGeometry y="150" width="140" height="30" as="geometry"/>
                </mxCell>
                <mxCell id="tbdWHVoQvG-Oq0Em6Cjs-14" value="mountain" style="swimlane;fontStyle=0;childLayout=stackLayout;horizontal=1;startSize=30;horizontalStack=0;resizeParent=1;resizeParentMax=0;resizeLast=0;collapsible=1;marginBottom=0;rounded=0;" parent="1" vertex="1">
                    <mxGeometry y="300" width="140" height="150" as="geometry"/>
                </mxCell>
                <mxCell id="tbdWHVoQvG-Oq0Em6Cjs-15" value="id" style="text;strokeColor=none;fillColor=none;align=left;verticalAlign=middle;spacingLeft=4;spacingRight=4;overflow=hidden;points=[[0,0.5],[1,0.5]];portConstraint=eastwest;rotatable=0;rounded=0;" parent="tbdWHVoQvG-Oq0Em6Cjs-14" vertex="1">
                    <mxGeometry y="30" width="140" height="30" as="geometry"/>
                </mxCell>
                <mxCell id="tbdWHVoQvG-Oq0Em6Cjs-16" value="name" style="text;strokeColor=none;fillColor=none;align=left;verticalAlign=middle;spacingLeft=4;spacingRight=4;overflow=hidden;points=[[0,0.5],[1,0.5]];portConstraint=eastwest;rotatable=0;rounded=0;" parent="tbdWHVoQvG-Oq0Em6Cjs-14" vertex="1">
                    <mxGeometry y="60" width="140" height="30" as="geometry"/>
                </mxCell>
                <mxCell id="tbdWHVoQvG-Oq0Em6Cjs-18" value="height" style="text;strokeColor=none;fillColor=none;align=left;verticalAlign=middle;spacingLeft=4;spacingRight=4;overflow=hidden;points=[[0,0.5],[1,0.5]];portConstraint=eastwest;rotatable=0;rounded=0;" parent="tbdWHVoQvG-Oq0Em6Cjs-14" vertex="1">
                    <mxGeometry y="90" width="140" height="30" as="geometry"/>
                </mxCell>
                <mxCell id="tbdWHVoQvG-Oq0Em6Cjs-17" value="position" style="text;strokeColor=none;fillColor=none;align=left;verticalAlign=middle;spacingLeft=4;spacingRight=4;overflow=hidden;points=[[0,0.5],[1,0.5]];portConstraint=eastwest;rotatable=0;rounded=0;" parent="tbdWHVoQvG-Oq0Em6Cjs-14" vertex="1">
                    <mxGeometry y="120" width="140" height="30" as="geometry"/>
                </mxCell>
                <mxCell id="tbdWHVoQvG-Oq0Em6Cjs-19" value="difficulty" style="swimlane;fontStyle=0;childLayout=stackLayout;horizontal=1;startSize=30;horizontalStack=0;resizeParent=1;resizeParentMax=0;resizeLast=0;collapsible=1;marginBottom=0;rounded=0;" parent="1" vertex="1">
                    <mxGeometry y="490" width="140" height="120" as="geometry"/>
                </mxCell>
                <mxCell id="tbdWHVoQvG-Oq0Em6Cjs-20" value="id" style="text;strokeColor=none;fillColor=none;align=left;verticalAlign=middle;spacingLeft=4;spacingRight=4;overflow=hidden;points=[[0,0.5],[1,0.5]];portConstraint=eastwest;rotatable=0;rounded=0;" parent="tbdWHVoQvG-Oq0Em6Cjs-19" vertex="1">
                    <mxGeometry y="30" width="140" height="30" as="geometry"/>
                </mxCell>
                <mxCell id="tbdWHVoQvG-Oq0Em6Cjs-23" value="name" style="text;strokeColor=none;fillColor=none;align=left;verticalAlign=middle;spacingLeft=4;spacingRight=4;overflow=hidden;points=[[0,0.5],[1,0.5]];portConstraint=eastwest;rotatable=0;rounded=0;" parent="tbdWHVoQvG-Oq0Em6Cjs-19" vertex="1">
                    <mxGeometry y="60" width="140" height="30" as="geometry"/>
                </mxCell>
                <mxCell id="tbdWHVoQvG-Oq0Em6Cjs-21" value="rating" style="text;strokeColor=none;fillColor=none;align=left;verticalAlign=middle;spacingLeft=4;spacingRight=4;overflow=hidden;points=[[0,0.5],[1,0.5]];portConstraint=eastwest;rotatable=0;rounded=0;" parent="tbdWHVoQvG-Oq0Em6Cjs-19" vertex="1">
                    <mxGeometry y="90" width="140" height="30" as="geometry"/>
                </mxCell>
                <mxCell id="tbdWHVoQvG-Oq0Em6Cjs-24" value="tag" style="swimlane;fontStyle=0;childLayout=stackLayout;horizontal=1;startSize=30;horizontalStack=0;resizeParent=1;resizeParentMax=0;resizeLast=0;collapsible=1;marginBottom=0;rounded=0;" parent="1" vertex="1">
                    <mxGeometry width="140" height="90" as="geometry"/>
                </mxCell>
                <mxCell id="tbdWHVoQvG-Oq0Em6Cjs-25" value="id" style="text;strokeColor=none;fillColor=none;align=left;verticalAlign=middle;spacingLeft=4;spacingRight=4;overflow=hidden;points=[[0,0.5],[1,0.5]];portConstraint=eastwest;rotatable=0;rounded=0;" parent="tbdWHVoQvG-Oq0Em6Cjs-24" vertex="1">
                    <mxGeometry y="30" width="140" height="30" as="geometry"/>
                </mxCell>
                <mxCell id="tbdWHVoQvG-Oq0Em6Cjs-26" value="name" style="text;strokeColor=none;fillColor=none;align=left;verticalAlign=middle;spacingLeft=4;spacingRight=4;overflow=hidden;points=[[0,0.5],[1,0.5]];portConstraint=eastwest;rotatable=0;rounded=0;" parent="tbdWHVoQvG-Oq0Em6Cjs-24" vertex="1">
                    <mxGeometry y="60" width="140" height="30" as="geometry"/>
                </mxCell>
                <mxCell id="tbdWHVoQvG-Oq0Em6Cjs-28" value="tour" style="swimlane;fontStyle=0;childLayout=stackLayout;horizontal=1;startSize=30;horizontalStack=0;resizeParent=1;resizeParentMax=0;resizeLast=0;collapsible=1;marginBottom=0;rounded=0;" parent="1" vertex="1">
                    <mxGeometry x="180" y="360" width="140" height="210" as="geometry"/>
                </mxCell>
                <mxCell id="tbdWHVoQvG-Oq0Em6Cjs-29" value="id" style="text;strokeColor=none;fillColor=none;align=left;verticalAlign=middle;spacingLeft=4;spacingRight=4;overflow=hidden;points=[[0,0.5],[1,0.5]];portConstraint=eastwest;rotatable=0;rounded=0;" parent="tbdWHVoQvG-Oq0Em6Cjs-28" vertex="1">
                    <mxGeometry y="30" width="140" height="30" as="geometry"/>
                </mxCell>
                <mxCell id="tbdWHVoQvG-Oq0Em6Cjs-32" value="mountain_id" style="text;strokeColor=none;fillColor=none;align=left;verticalAlign=middle;spacingLeft=4;spacingRight=4;overflow=hidden;points=[[0,0.5],[1,0.5]];portConstraint=eastwest;rotatable=0;rounded=0;" parent="tbdWHVoQvG-Oq0Em6Cjs-28" vertex="1">
                    <mxGeometry y="60" width="140" height="30" as="geometry"/>
                </mxCell>
                <mxCell id="tbdWHVoQvG-Oq0Em6Cjs-33" value="difficulty_id" style="text;strokeColor=none;fillColor=none;align=left;verticalAlign=middle;spacingLeft=4;spacingRight=4;overflow=hidden;points=[[0,0.5],[1,0.5]];portConstraint=eastwest;rotatable=0;rounded=0;" parent="tbdWHVoQvG-Oq0Em6Cjs-28" vertex="1">
                    <mxGeometry y="90" width="140" height="30" as="geometry"/>
                </mxCell>
                <mxCell id="tbdWHVoQvG-Oq0Em6Cjs-30" value="name" style="text;strokeColor=none;fillColor=none;align=left;verticalAlign=middle;spacingLeft=4;spacingRight=4;overflow=hidden;points=[[0,0.5],[1,0.5]];portConstraint=eastwest;rotatable=0;rounded=0;" parent="tbdWHVoQvG-Oq0Em6Cjs-28" vertex="1">
                    <mxGeometry y="120" width="140" height="30" as="geometry"/>
                </mxCell>
                <mxCell id="tbdWHVoQvG-Oq0Em6Cjs-35" value="description" style="text;strokeColor=none;fillColor=none;align=left;verticalAlign=middle;spacingLeft=4;spacingRight=4;overflow=hidden;points=[[0,0.5],[1,0.5]];portConstraint=eastwest;rotatable=0;rounded=0;" parent="tbdWHVoQvG-Oq0Em6Cjs-28" vertex="1">
                    <mxGeometry y="150" width="140" height="30" as="geometry"/>
                </mxCell>
                <mxCell id="tbdWHVoQvG-Oq0Em6Cjs-31" value="starting_point" style="text;strokeColor=none;fillColor=none;align=left;verticalAlign=middle;spacingLeft=4;spacingRight=4;overflow=hidden;points=[[0,0.5],[1,0.5]];portConstraint=eastwest;rotatable=0;rounded=0;" parent="tbdWHVoQvG-Oq0Em6Cjs-28" vertex="1">
                    <mxGeometry y="180" width="140" height="30" as="geometry"/>
                </mxCell>
                <mxCell id="tbdWHVoQvG-Oq0Em6Cjs-40" value="reservation" style="swimlane;fontStyle=0;childLayout=stackLayout;horizontal=1;startSize=30;horizontalStack=0;resizeParent=1;resizeParentMax=0;resizeLast=0;collapsible=1;marginBottom=0;rounded=0;" parent="1" vertex="1">
                    <mxGeometry x="360" width="140" height="180" as="geometry"/>
                </mxCell>
                <mxCell id="tbdWHVoQvG-Oq0Em6Cjs-41" value="id" style="text;strokeColor=none;fillColor=none;align=left;verticalAlign=middle;spacingLeft=4;spacingRight=4;overflow=hidden;points=[[0,0.5],[1,0.5]];portConstraint=eastwest;rotatable=0;rounded=0;" parent="tbdWHVoQvG-Oq0Em6Cjs-40" vertex="1">
                    <mxGeometry y="30" width="140" height="30" as="geometry"/>
                </mxCell>
                <mxCell id="tbdWHVoQvG-Oq0Em6Cjs-42" value="offer_id" style="text;strokeColor=none;fillColor=none;align=left;verticalAlign=middle;spacingLeft=4;spacingRight=4;overflow=hidden;points=[[0,0.5],[1,0.5]];portConstraint=eastwest;rotatable=0;rounded=0;" parent="tbdWHVoQvG-Oq0Em6Cjs-40" vertex="1">
                    <mxGeometry y="60" width="140" height="30" as="geometry"/>
                </mxCell>
                <mxCell id="tbdWHVoQvG-Oq0Em6Cjs-44" value="user_id" style="text;strokeColor=none;fillColor=none;align=left;verticalAlign=middle;spacingLeft=4;spacingRight=4;overflow=hidden;points=[[0,0.5],[1,0.5]];portConstraint=eastwest;rotatable=0;rounded=0;" parent="tbdWHVoQvG-Oq0Em6Cjs-40" vertex="1">
                    <mxGeometry y="90" width="140" height="30" as="geometry"/>
                </mxCell>
                <mxCell id="tbdWHVoQvG-Oq0Em6Cjs-43" value="reservations" style="text;strokeColor=none;fillColor=none;align=left;verticalAlign=middle;spacingLeft=4;spacingRight=4;overflow=hidden;points=[[0,0.5],[1,0.5]];portConstraint=eastwest;rotatable=0;rounded=0;" parent="tbdWHVoQvG-Oq0Em6Cjs-40" vertex="1">
                    <mxGeometry y="120" width="140" height="30" as="geometry"/>
                </mxCell>
                <mxCell id="SJiMZoRfc4JG-Pprcu0o-1" value="status" style="text;strokeColor=none;fillColor=none;align=left;verticalAlign=middle;spacingLeft=4;spacingRight=4;overflow=hidden;points=[[0,0.5],[1,0.5]];portConstraint=eastwest;rotatable=0;rounded=0;" vertex="1" parent="tbdWHVoQvG-Oq0Em6Cjs-40">
                    <mxGeometry y="150" width="140" height="30" as="geometry"/>
                </mxCell>
                <mxCell id="z5rdMdF9UMucl4-FeS4Y-3" value="review" style="swimlane;fontStyle=0;childLayout=stackLayout;horizontal=1;startSize=30;horizontalStack=0;resizeParent=1;resizeParentMax=0;resizeLast=0;collapsible=1;marginBottom=0;rounded=0;" parent="1" vertex="1">
                    <mxGeometry x="360" y="400" width="140" height="210" as="geometry"/>
                </mxCell>
                <mxCell id="z5rdMdF9UMucl4-FeS4Y-4" value="id" style="text;strokeColor=none;fillColor=none;align=left;verticalAlign=middle;spacingLeft=4;spacingRight=4;overflow=hidden;points=[[0,0.5],[1,0.5]];portConstraint=eastwest;rotatable=0;rounded=0;" parent="z5rdMdF9UMucl4-FeS4Y-3" vertex="1">
                    <mxGeometry y="30" width="140" height="30" as="geometry"/>
                </mxCell>
                <mxCell id="z5rdMdF9UMucl4-FeS4Y-6" value="tour_id" style="text;strokeColor=none;fillColor=none;align=left;verticalAlign=middle;spacingLeft=4;spacingRight=4;overflow=hidden;points=[[0,0.5],[1,0.5]];portConstraint=eastwest;rotatable=0;rounded=0;" parent="z5rdMdF9UMucl4-FeS4Y-3" vertex="1">
                    <mxGeometry y="60" width="140" height="30" as="geometry"/>
                </mxCell>
                <mxCell id="z5rdMdF9UMucl4-FeS4Y-5" value="user_id" style="text;strokeColor=none;fillColor=none;align=left;verticalAlign=middle;spacingLeft=4;spacingRight=4;overflow=hidden;points=[[0,0.5],[1,0.5]];portConstraint=eastwest;rotatable=0;rounded=0;" parent="z5rdMdF9UMucl4-FeS4Y-3" vertex="1">
                    <mxGeometry y="90" width="140" height="30" as="geometry"/>
                </mxCell>
                <mxCell id="z5rdMdF9UMucl4-FeS4Y-8" value="rating" style="text;strokeColor=none;fillColor=none;align=left;verticalAlign=middle;spacingLeft=4;spacingRight=4;overflow=hidden;points=[[0,0.5],[1,0.5]];portConstraint=eastwest;rotatable=0;rounded=0;" parent="z5rdMdF9UMucl4-FeS4Y-3" vertex="1">
                    <mxGeometry y="120" width="140" height="30" as="geometry"/>
                </mxCell>
                <mxCell id="z5rdMdF9UMucl4-FeS4Y-7" value="comment" style="text;strokeColor=none;fillColor=none;align=left;verticalAlign=middle;spacingLeft=4;spacingRight=4;overflow=hidden;points=[[0,0.5],[1,0.5]];portConstraint=eastwest;rotatable=0;rounded=0;" parent="z5rdMdF9UMucl4-FeS4Y-3" vertex="1">
                    <mxGeometry y="150" width="140" height="30" as="geometry"/>
                </mxCell>
                <mxCell id="SJiMZoRfc4JG-Pprcu0o-2" value="created_at" style="text;strokeColor=none;fillColor=none;align=left;verticalAlign=middle;spacingLeft=4;spacingRight=4;overflow=hidden;points=[[0,0.5],[1,0.5]];portConstraint=eastwest;rotatable=0;rounded=0;" vertex="1" parent="z5rdMdF9UMucl4-FeS4Y-3">
                    <mxGeometry y="180" width="140" height="30" as="geometry"/>
                </mxCell>
                <mxCell id="4E5XptxeIW62rDv6uc92-1" value="tour_tag" style="swimlane;fontStyle=0;childLayout=stackLayout;horizontal=1;startSize=30;horizontalStack=0;resizeParent=1;resizeParentMax=0;resizeLast=0;collapsible=1;marginBottom=0;rounded=0;" parent="1" vertex="1">
                    <mxGeometry y="130" width="140" height="120" as="geometry"/>
                </mxCell>
                <mxCell id="4E5XptxeIW62rDv6uc92-2" value="id" style="text;strokeColor=none;fillColor=none;align=left;verticalAlign=middle;spacingLeft=4;spacingRight=4;overflow=hidden;points=[[0,0.5],[1,0.5]];portConstraint=eastwest;rotatable=0;rounded=0;" parent="4E5XptxeIW62rDv6uc92-1" vertex="1">
                    <mxGeometry y="30" width="140" height="30" as="geometry"/>
                </mxCell>
                <mxCell id="4E5XptxeIW62rDv6uc92-4" value="tag_id" style="text;strokeColor=none;fillColor=none;align=left;verticalAlign=middle;spacingLeft=4;spacingRight=4;overflow=hidden;points=[[0,0.5],[1,0.5]];portConstraint=eastwest;rotatable=0;rounded=0;" parent="4E5XptxeIW62rDv6uc92-1" vertex="1">
                    <mxGeometry y="60" width="140" height="30" as="geometry"/>
                </mxCell>
                <mxCell id="4E5XptxeIW62rDv6uc92-3" value="tour_id" style="text;strokeColor=none;fillColor=none;align=left;verticalAlign=middle;spacingLeft=4;spacingRight=4;overflow=hidden;points=[[0,0.5],[1,0.5]];portConstraint=eastwest;rotatable=0;rounded=0;" parent="4E5XptxeIW62rDv6uc92-1" vertex="1">
                    <mxGeometry y="90" width="140" height="30" as="geometry"/>
                </mxCell>
                <mxCell id="ow-feEnb0Xjuhc3goVqC-1" style="html=1;exitX=1;exitY=0.5;exitDx=0;exitDy=0;entryX=0;entryY=0.5;entryDx=0;entryDy=0;elbow=vertical;rounded=0;edgeStyle=orthogonalEdgeStyle;" edge="1" parent="1" source="tbdWHVoQvG-Oq0Em6Cjs-20" target="tbdWHVoQvG-Oq0Em6Cjs-33">
                    <mxGeometry relative="1" as="geometry"/>
                </mxCell>
                <mxCell id="ow-feEnb0Xjuhc3goVqC-8" style="edgeStyle=orthogonalEdgeStyle;rounded=0;html=1;exitX=0.998;exitY=0.328;exitDx=0;exitDy=0;entryX=1;entryY=0.5;entryDx=0;entryDy=0;elbow=vertical;exitPerimeter=0;" edge="1" parent="1" source="tbdWHVoQvG-Oq0Em6Cjs-2" target="tbdWHVoQvG-Oq0Em6Cjs-44">
                    <mxGeometry relative="1" as="geometry">
                        <Array as="points">
                            <mxPoint x="520" y="240"/>
                            <mxPoint x="520" y="105"/>
                        </Array>
                    </mxGeometry>
                </mxCell>
                <mxCell id="ow-feEnb0Xjuhc3goVqC-9" style="edgeStyle=orthogonalEdgeStyle;rounded=0;html=1;elbow=vertical;entryX=0;entryY=0.5;entryDx=0;entryDy=0;exitX=0.997;exitY=0.656;exitDx=0;exitDy=0;exitPerimeter=0;" edge="1" parent="1" source="tbdWHVoQvG-Oq0Em6Cjs-29" target="z5rdMdF9UMucl4-FeS4Y-6">
                    <mxGeometry relative="1" as="geometry">
                        <mxPoint x="340" y="400" as="targetPoint"/>
                        <mxPoint x="330" y="420" as="sourcePoint"/>
                        <Array as="points">
                            <mxPoint x="340" y="410"/>
                            <mxPoint x="340" y="475"/>
                        </Array>
                    </mxGeometry>
                </mxCell>
                <mxCell id="ow-feEnb0Xjuhc3goVqC-10" style="edgeStyle=orthogonalEdgeStyle;rounded=0;html=1;entryX=1;entryY=0.5;entryDx=0;entryDy=0;elbow=vertical;exitX=1.001;exitY=0.66;exitDx=0;exitDy=0;exitPerimeter=0;" edge="1" parent="1" source="tbdWHVoQvG-Oq0Em6Cjs-2" target="z5rdMdF9UMucl4-FeS4Y-5">
                    <mxGeometry relative="1" as="geometry">
                        <mxPoint x="500" y="230" as="sourcePoint"/>
                        <Array as="points">
                            <mxPoint x="520" y="250"/>
                            <mxPoint x="520" y="505"/>
                        </Array>
                    </mxGeometry>
                </mxCell>
                <mxCell id="ow-feEnb0Xjuhc3goVqC-13" style="edgeStyle=orthogonalEdgeStyle;rounded=0;html=1;exitX=1;exitY=0.5;exitDx=0;exitDy=0;entryX=0;entryY=0.5;entryDx=0;entryDy=0;elbow=vertical;" edge="1" parent="1" source="tbdWHVoQvG-Oq0Em6Cjs-15" target="tbdWHVoQvG-Oq0Em6Cjs-32">
                    <mxGeometry relative="1" as="geometry">
                        <Array as="points">
                            <mxPoint x="150" y="345"/>
                            <mxPoint x="150" y="435"/>
                        </Array>
                    </mxGeometry>
                </mxCell>
                <mxCell id="yjMro8OrNzD7zltZo3yg-3" value="offer" style="swimlane;fontStyle=0;childLayout=stackLayout;horizontal=1;startSize=30;horizontalStack=0;resizeParent=1;resizeParentMax=0;resizeLast=0;collapsible=1;marginBottom=0;rounded=0;" vertex="1" parent="1">
                    <mxGeometry x="180" y="40" width="140" height="210" as="geometry"/>
                </mxCell>
                <mxCell id="yjMro8OrNzD7zltZo3yg-4" value="id" style="text;strokeColor=none;fillColor=none;align=left;verticalAlign=middle;spacingLeft=4;spacingRight=4;overflow=hidden;points=[[0,0.5],[1,0.5]];portConstraint=eastwest;rotatable=0;rounded=0;" vertex="1" parent="yjMro8OrNzD7zltZo3yg-3">
                    <mxGeometry y="30" width="140" height="30" as="geometry"/>
                </mxCell>
                <mxCell id="yjMro8OrNzD7zltZo3yg-7" value="tour_id" style="text;strokeColor=none;fillColor=none;align=left;verticalAlign=middle;spacingLeft=4;spacingRight=4;overflow=hidden;points=[[0,0.5],[1,0.5]];portConstraint=eastwest;rotatable=0;rounded=0;" vertex="1" parent="yjMro8OrNzD7zltZo3yg-3">
                    <mxGeometry y="60" width="140" height="30" as="geometry"/>
                </mxCell>
                <mxCell id="z5rdMdF9UMucl4-FeS4Y-2" value="ending_at" style="text;strokeColor=none;fillColor=none;align=left;verticalAlign=middle;spacingLeft=4;spacingRight=4;overflow=hidden;points=[[0,0.5],[1,0.5]];portConstraint=eastwest;rotatable=0;rounded=0;" parent="yjMro8OrNzD7zltZo3yg-3" vertex="1">
                    <mxGeometry y="90" width="140" height="30" as="geometry"/>
                </mxCell>
                <mxCell id="z5rdMdF9UMucl4-FeS4Y-1" value="starting_at" style="text;strokeColor=none;fillColor=none;align=left;verticalAlign=middle;spacingLeft=4;spacingRight=4;overflow=hidden;points=[[0,0.5],[1,0.5]];portConstraint=eastwest;rotatable=0;rounded=0;" parent="yjMro8OrNzD7zltZo3yg-3" vertex="1">
                    <mxGeometry y="120" width="140" height="30" as="geometry"/>
                </mxCell>
                <mxCell id="tbdWHVoQvG-Oq0Em6Cjs-38" value="max_reservations" style="text;strokeColor=none;fillColor=none;align=left;verticalAlign=middle;spacingLeft=4;spacingRight=4;overflow=hidden;points=[[0,0.5],[1,0.5]];portConstraint=eastwest;rotatable=0;rounded=0;" parent="yjMro8OrNzD7zltZo3yg-3" vertex="1">
                    <mxGeometry y="150" width="140" height="30" as="geometry"/>
                </mxCell>
                <mxCell id="tbdWHVoQvG-Oq0Em6Cjs-36" value="price" style="text;strokeColor=none;fillColor=none;align=left;verticalAlign=middle;spacingLeft=4;spacingRight=4;overflow=hidden;points=[[0,0.5],[1,0.5]];portConstraint=eastwest;rotatable=0;rounded=0;" parent="yjMro8OrNzD7zltZo3yg-3" vertex="1">
                    <mxGeometry y="180" width="140" height="30" as="geometry"/>
                </mxCell>
                <mxCell id="yjMro8OrNzD7zltZo3yg-9" style="edgeStyle=orthogonalEdgeStyle;rounded=0;html=1;exitX=1;exitY=0.327;exitDx=0;exitDy=0;entryX=1;entryY=0.5;entryDx=0;entryDy=0;elbow=vertical;exitPerimeter=0;" edge="1" parent="1" source="tbdWHVoQvG-Oq0Em6Cjs-29" target="yjMro8OrNzD7zltZo3yg-7">
                    <mxGeometry relative="1" as="geometry">
                        <Array as="points">
                            <mxPoint x="340" y="400"/>
                            <mxPoint x="340" y="115"/>
                        </Array>
                    </mxGeometry>
                </mxCell>
                <mxCell id="yjMro8OrNzD7zltZo3yg-10" style="edgeStyle=orthogonalEdgeStyle;rounded=0;html=1;exitX=1;exitY=0.5;exitDx=0;exitDy=0;entryX=1;entryY=0.5;entryDx=0;entryDy=0;elbow=vertical;" edge="1" parent="1" source="tbdWHVoQvG-Oq0Em6Cjs-25" target="4E5XptxeIW62rDv6uc92-4">
                    <mxGeometry relative="1" as="geometry">
                        <Array as="points">
                            <mxPoint x="160" y="45"/>
                            <mxPoint x="160" y="205"/>
                        </Array>
                    </mxGeometry>
                </mxCell>
                <mxCell id="EkQVt-u0g3KCkeC_WdN2-1" style="edgeStyle=orthogonalEdgeStyle;rounded=0;html=1;exitX=1;exitY=0.5;exitDx=0;exitDy=0;entryX=0;entryY=0.5;entryDx=0;entryDy=0;strokeColor=#000000;elbow=vertical;" edge="1" parent="1" source="yjMro8OrNzD7zltZo3yg-4" target="tbdWHVoQvG-Oq0Em6Cjs-42">
                    <mxGeometry relative="1" as="geometry"/>
                </mxCell>
                <mxCell id="EkQVt-u0g3KCkeC_WdN2-2" style="edgeStyle=orthogonalEdgeStyle;rounded=0;html=1;exitX=0;exitY=0.5;exitDx=0;exitDy=0;entryX=1;entryY=0.5;entryDx=0;entryDy=0;strokeColor=#000000;elbow=vertical;" edge="1" parent="1" source="tbdWHVoQvG-Oq0Em6Cjs-29" target="4E5XptxeIW62rDv6uc92-3">
                    <mxGeometry relative="1" as="geometry">
                        <Array as="points">
                            <mxPoint x="170" y="405"/>
                            <mxPoint x="170" y="235"/>
                        </Array>
                    </mxGeometry>
                </mxCell>
            </root>
        </mxGraphModel>
    </diagram>
</mxfile>